<?xml version="1.0" encoding="utf-8"?>
<!-- Generator: Adobe Illustrator 14.0.0, SVG Export Plug-In . SVG Version: 6.00 Build 43363)  -->
<!DOCTYPE svg PUBLIC "-//W3C//DTD SVG 1.1//EN" "http://www.w3.org/Graphics/SVG/1.1/DTD/svg11.dtd">
<svg version="1.1" id="Layer_1" xmlns="http://www.w3.org/2000/svg" xmlns:xlink="http://www.w3.org/1999/xlink" x="0px" y="0px"
	 width="100px" height="100px" viewBox="0 0 100 100" enable-background="new 0 0 100 100" xml:space="preserve">
<g>
	<path fill="#FFFFFF" d="M34.604,79.642c0,2.053-1.664,3.716-3.716,3.716l0,0c-2.052,0-3.715-1.663-3.715-3.716V51.528
		c0-2.052,1.663-3.716,3.715-3.716l0,0c2.053,0,3.716,1.664,3.716,3.716V79.642z"/>
	<path fill="#020202" d="M30.888,84.857c-2.876,0-5.215-2.34-5.215-5.216V51.528c0-2.876,2.339-5.216,5.215-5.216
		c2.876,0,5.216,2.34,5.216,5.216v28.113C36.104,82.518,33.765,84.857,30.888,84.857L30.888,84.857z M30.888,49.312
		c-1.222,0-2.215,0.994-2.215,2.216v28.113c0,1.222,0.994,2.216,2.215,2.216c1.222,0,2.216-0.994,2.216-2.216V51.528
		C33.104,50.307,32.11,49.312,30.888,49.312L30.888,49.312z"/>
</g>
<g>
	<path fill="#FFFFFF" d="M47.207,79.398c0,2.187-1.772,3.959-3.959,3.959l0,0c-2.186,0-3.958-1.772-3.958-3.959V51.771
		c0-2.187,1.772-3.959,3.958-3.959l0,0c2.187,0,3.959,1.772,3.959,3.959V79.398z"/>
	<path fill="#020202" d="M43.248,84.857c-3.009,0-5.458-2.449-5.458-5.459V51.771c0-3.01,2.448-5.459,5.458-5.459
		c3.01,0,5.459,2.449,5.459,5.459v27.627C48.707,82.408,46.258,84.857,43.248,84.857L43.248,84.857z M43.248,49.312
		c-1.355,0-2.458,1.103-2.458,2.459v27.627c0,1.355,1.103,2.459,2.458,2.459c1.356,0,2.459-1.104,2.459-2.459V51.771
		C45.707,50.416,44.604,49.312,43.248,49.312L43.248,49.312z"/>
</g>
<g>
	<path fill="#FFFFFF" d="M59.715,79.398c0,2.187-1.771,3.959-3.959,3.959l0,0c-2.185,0-3.957-1.772-3.957-3.959V51.771
		c0-2.187,1.772-3.959,3.957-3.959l0,0c2.188,0,3.959,1.772,3.959,3.959V79.398z"/>
	<path fill="#020202" d="M55.756,84.857c-3.009,0-5.457-2.449-5.457-5.459V51.771c0-3.01,2.448-5.459,5.457-5.459
		c3.01,0,5.459,2.449,5.459,5.459v27.627C61.215,82.408,58.766,84.857,55.756,84.857L55.756,84.857z M55.756,49.312
		c-1.354,0-2.457,1.103-2.457,2.459v27.627c0,1.355,1.103,2.459,2.457,2.459c1.355,0,2.459-1.104,2.459-2.459V51.771
		C58.215,50.416,57.111,49.312,55.756,49.312L55.756,49.312z"/>
</g>
<g>
	<path fill="#020202" d="M57.067,96.593H29.428c-5.056,0-9.168-3.647-9.168-8.13V37.588h45.977v50.875
		C66.236,92.945,62.123,96.593,57.067,96.593L57.067,96.593z M23.26,40.588v47.875c0,2.829,2.767,5.13,6.168,5.13h27.639
		c3.401,0,6.169-2.301,6.169-5.13V40.588H23.26L23.26,40.588z"/>
</g>
<g>
	<path fill="#020202" d="M65.711,89.659c-0.266,0-0.534-0.002-0.807-0.007l0.055-3c6.78,0.128,9.756-1.426,11.047-2.749
		c1.024-1.051,1.049-2.028,1.048-2.038c-0.005-0.171-0.404-14.954-0.008-26.106c0.087-2.457-0.575-4.304-2.023-5.646
		c-3.374-3.124-9.854-2.431-9.921-2.426l-0.342-2.98c0.318-0.038,7.897-0.86,12.291,3.196c2.104,1.944,3.111,4.623,2.993,7.962
		c-0.394,11.057,0.004,25.747,0.008,25.895c0.01,0.203,0.039,2.252-1.898,4.238C75.781,88.429,71.598,89.659,65.711,89.659
		L65.711,89.659z"/>
</g>
<g>
	<path fill="#020202" d="M64.903,40.279H21.041l-0.442-0.695c-0.723-1.137-1.105-2.441-1.105-3.772c0-3.643,2.796-6.658,6.398-7.099
		c1.525-5.035,5.808-8.458,10.764-8.458c4.947,0,9.274,3.493,10.782,8.501c0.46-0.066,0.926-0.1,1.394-0.1
		c3.266,0,6.148,1.585,7.537,3.966c0.942-0.426,1.982-0.651,3.05-0.651c3.861,0,7.002,2.92,7.002,6.509
		c0,0.113-0.008,0.226-0.017,0.338l-0.109,1.381L64.903,40.279L64.903,40.279z M55.115,37.279h8.064
		c-0.562-1.345-2.035-2.307-3.761-2.307c-1.048,0-2.041,0.358-2.797,1.009L55.115,37.279L55.115,37.279z M22.775,37.279h31.85
		l-0.449-2.125c-0.421-1.994-2.719-3.498-5.344-3.498c-0.699,0-1.39,0.107-2.053,0.318l-1.636,0.521l-0.297-1.69
		c-0.768-4.375-4.212-7.55-8.19-7.55c-3.891,0-7.23,2.97-8.122,7.222l-0.262,1.248l-1.397-0.064c-0.002,0-0.005,0-0.008,0
		c-2.445,0-4.375,1.862-4.375,4.151C22.494,36.314,22.59,36.811,22.775,37.279L22.775,37.279z"/>
</g>
<g>
	<path fill="#020202" d="M55.236,26.713c-3.009,0-5.457-2.306-5.457-5.14c0-2.834,2.448-5.14,5.457-5.14
		c3.01,0,5.459,2.306,5.459,5.14C60.695,24.408,58.246,26.713,55.236,26.713L55.236,26.713z M55.236,19.434
		c-1.354,0-2.457,0.96-2.457,2.14c0,1.18,1.103,2.14,2.457,2.14c1.355,0,2.459-0.96,2.459-2.14
		C57.695,20.394,56.592,19.434,55.236,19.434L55.236,19.434z"/>
</g>
<g>
	<path fill="#020202" d="M40.98,15.96c-3.591,0-6.512-2.964-6.512-6.608c0-3.644,2.921-6.608,6.512-6.608
		c3.592,0,6.514,2.964,6.514,6.608C47.494,12.996,44.572,15.96,40.98,15.96L40.98,15.96z M40.98,5.744
		c-1.937,0-3.512,1.619-3.512,3.608c0,1.989,1.576,3.608,3.512,3.608c1.938,0,3.514-1.619,3.514-3.608
		C44.494,7.363,42.917,5.744,40.98,5.744L40.98,5.744z"/>
</g>
</svg>
