<?xml version="1.0" encoding="utf-8"?>
<!-- Generator: Adobe Illustrator 14.0.0, SVG Export Plug-In . SVG Version: 6.00 Build 43363)  -->
<!DOCTYPE svg PUBLIC "-//W3C//DTD SVG 1.1//EN" "http://www.w3.org/Graphics/SVG/1.1/DTD/svg11.dtd">
<svg version="1.1" id="Layer_1" xmlns="http://www.w3.org/2000/svg" xmlns:xlink="http://www.w3.org/1999/xlink" x="0px" y="0px"
	 width="100px" height="100px" viewBox="0 0 100 100" enable-background="new 0 0 100 100" xml:space="preserve">
<g>
	<g>
		<path d="M44.755,2c0,0-4.087,2.921,0,5.618v7.193c0,0-0.164,11.095-9.96,14.608c0,0-4.598,1.574-4.598,11.237s0,50.792,0,50.792
			s-0.755,6.068,7.285,6.068c8.04,0,8.04,0,8.04,0h5.873V2H44.755z"/>
		<path d="M56.419,2c0,0,4.087,2.921,0,5.618v7.193c0,0-0.246,9.782,9.96,14.608c0,0,4.598,1.574,4.598,11.237s0,50.792,0,50.792
			s0.756,6.068-7.284,6.068c-8.039,0-8.039,0-8.039,0h-5.875V2H56.419z"/>
	</g>
	<path fill="#FFFFFF" d="M35.088,38.838c0,0,3.984,4.916,10.047,0c0,0,3.249,6.144,10.341,0c0,0,4.137,5.162,10.341,0V87.75
		c0,0,0.797,4.916-4.053,4.916c-4.851,0-23.711,0-23.711,0s-2.695-0.002-2.964-4.18c-0.269-4.178-0.269-4.178-0.269-4.178
		L35.088,38.838z"/>
</g>
</svg>
