<?xml version="1.0" encoding="utf-8"?>
<!-- Generator: Adobe Illustrator 14.0.0, SVG Export Plug-In . SVG Version: 6.00 Build 43363)  -->
<!DOCTYPE svg PUBLIC "-//W3C//DTD SVG 1.1//EN" "http://www.w3.org/Graphics/SVG/1.1/DTD/svg11.dtd">
<svg version="1.1" id="Layer_1" xmlns="http://www.w3.org/2000/svg" xmlns:xlink="http://www.w3.org/1999/xlink" x="0px" y="0px"
	 width="100px" height="100px" viewBox="0 0 100 100" enable-background="new 0 0 100 100" xml:space="preserve">
<g>
	<path fill="#020202" d="M91.275,89.541H71.303l-0.593-0.898c-0.266-0.402-6.52-9.995-7.786-22.405
		c-0.105-1.028-0.105-2.786-0.033-4.632c-2.921,0.188-5.321-0.55-7.158-2.195c-3.725-3.331-3.501-9.172-3.448-10.01
		c0.03-6.706,4.358-12.479,11.59-15.453c8.136-3.347,20.313-2.714,29.178,6.24c14.81,14.959-0.566,46.882-1.229,48.234
		L91.275,89.541L91.275,89.541z M73.502,85.541h15.244c2.512-5.635,12.875-31.013,1.464-42.54
		c-7.562-7.637-17.911-8.192-24.814-5.355c-5.705,2.347-9.111,6.767-9.111,11.825l-0.007,0.164
		c-0.097,1.274,0.097,4.995,2.132,6.803c1.098,0.977,2.695,1.353,4.756,1.129c0.082-0.809,0.178-1.52,0.281-2.051
		c1.566-8.045,6.69-10.466,10.967-10.058c5.428,0.523,11.042,5.866,11.042,13.9c0,5.827-1.22,9.342-3.728,10.747
		c-2.463,1.378-4.858-0.002-5.122-0.165c-0.942-0.577-1.237-1.809-0.66-2.75c0.571-0.934,1.785-1.23,2.724-0.677
		c0.052,0.029,0.677,0.354,1.118,0.094c0.278-0.164,1.668-1.28,1.668-7.249c0-5.76-3.775-9.566-7.426-9.918
		c-3.266-0.311-5.762,2.242-6.657,6.84c-0.39,2.001-0.666,7.625-0.47,9.551C67.855,75.164,71.998,82.968,73.502,85.541
		L73.502,85.541z"/>
</g>
<g>
	<path fill="#020202" d="M92.13,96.71H70.379V85.541H92.13V96.71L92.13,96.71z M74.379,92.71H88.13v-3.169H74.379V92.71
		L74.379,92.71z"/>
</g>
<g>
	<path fill="#020202" d="M29.429,89.541H9.458l-0.549-1.12C8.248,87.069-7.129,55.146,7.68,40.187
		c8.865-8.955,21.04-9.586,29.177-6.241c7.232,2.974,11.56,8.748,11.59,15.454C48.5,50.237,48.724,56.079,45,59.41
		c-1.838,1.644-4.238,2.384-7.159,2.195c0.072,1.846,0.071,3.602-0.034,4.63c-1.265,12.412-7.52,22.006-7.786,22.407L29.429,89.541
		L29.429,89.541z M11.987,85.541H27.23c1.504-2.573,5.646-10.377,6.598-19.712c0.197-1.926-0.079-7.548-0.468-9.549
		c-0.895-4.599-3.377-7.147-6.657-6.841c-3.65,0.353-7.425,4.159-7.425,9.919c0,5.969,1.39,7.085,1.668,7.249
		c0.459,0.271,1.115-0.091,1.121-0.096c0.95-0.531,2.17-0.217,2.721,0.723c0.551,0.94,0.268,2.137-0.661,2.706
		c-0.265,0.163-2.656,1.547-5.122,0.165c-2.509-1.405-3.728-4.92-3.728-10.747c0-8.034,5.614-13.376,11.042-13.9
		c4.277-0.409,9.401,2.014,10.967,10.058c0.104,0.532,0.199,1.243,0.281,2.052c2.069,0.227,3.668-0.155,4.766-1.139
		c2.428-2.171,2.125-6.748,2.122-6.793l-0.007-0.164c0-5.059-3.406-9.479-9.112-11.826c-6.901-2.838-17.25-2.284-24.812,5.355
		C-0.889,54.528,9.475,79.906,11.987,85.541L11.987,85.541z"/>
</g>
<g>
	<path fill="#020202" d="M30.353,96.709H8.602V85.541h21.75V96.709L30.353,96.709z M12.602,92.709h13.75v-3.168h-13.75V92.709
		L12.602,92.709z"/>
</g>
</svg>
