<?xml version="1.0" encoding="utf-8"?>
<!-- Generator: Adobe Illustrator 15.0.0, SVG Export Plug-In . SVG Version: 6.00 Build 0)  -->
<!DOCTYPE svg PUBLIC "-//W3C//DTD SVG 1.1//EN" "http://www.w3.org/Graphics/SVG/1.1/DTD/svg11.dtd">
<svg version="1.1" id="Layer_1" xmlns="http://www.w3.org/2000/svg" xmlns:xlink="http://www.w3.org/1999/xlink" x="0px" y="0px"
	 width="100px" height="100px" viewBox="0 0 100 100" enable-background="new 0 0 100 100" xml:space="preserve">
<path d="M24.457,94.291c0,0.727-0.681,1.314-1.522,1.314H4.667c-0.841,0-1.522-0.588-1.522-1.314l0,0
	c0-0.727,0.738-1.591,1.579-1.591h18.84C24.405,92.7,24.457,93.564,24.457,94.291L24.457,94.291z"/>
<path d="M22.935,95.605c0,0,13.612-3.215,18.466-3.045c3.971,0.14,10.193,1.522,10.193,1.522c27.534,9.001,44.61-2.847,45.404-4.038
	c0.795-1.191-1.721-0.794-1.721-0.794H44.975L23.564,92.7"/>
<path fill="none" stroke="#000000" stroke-miterlimit="10" d="M-37.483,19.94"/>
<path d="M6.272,87.181l1.985-4.839c0,0,0.743-1.611,1.612,0c0.869,1.613,1.365,4.839,1.365,4.839H6.272z"/>
<path d="M10.739,87.182l1.986-4.84c0,0,0.743-1.611,1.611,0c0.87,1.613,1.367,4.84,1.367,4.84H10.739z"/>
<path d="M15.225,87.182l1.986-4.84c0,0,0.743-1.611,1.611,0c0.87,1.613,1.367,4.84,1.367,4.84H15.225z"/>
<path d="M4.431,87.181h2.482c0,0-0.497-3.227-1.367-4.84c-0.427-0.793-0.823-0.804-1.116-0.61V87.181z"/>
<path d="M22.17,81.678c-0.55-0.052-0.768,0.508-0.768,0.508l-1.714,4.943h2.482V81.678z"/>
<rect x="4.431" y="86.137" width="17.739" height="5.971"/>
<path d="M5.24,76.481c0-1.766,1.396-3.196,3.12-3.196c0,0,2.559-0.075,5.959,2.207s5.912,0.532,6.368,0
	c0.456-0.532,1.218,0.075,0.533,0.989c-0.685,0.912-2.174,5.173-13.263,3.157v-0.004C6.426,79.432,5.24,78.105,5.24,76.481z"/>
</svg>
