<?xml version="1.0" encoding="utf-8"?>
<!-- Generator: Adobe Illustrator 14.0.0, SVG Export Plug-In . SVG Version: 6.00 Build 43363)  -->
<!DOCTYPE svg PUBLIC "-//W3C//DTD SVG 1.1//EN" "http://www.w3.org/Graphics/SVG/1.1/DTD/svg11.dtd">
<svg version="1.1" id="Layer_1" xmlns="http://www.w3.org/2000/svg" xmlns:xlink="http://www.w3.org/1999/xlink" x="0px" y="0px"
	 width="100px" height="100px" viewBox="0 0 100 100" enable-background="new 0 0 100 100" xml:space="preserve">
<path stroke="#000000" stroke-width="4" d="M19.232,49.92c0,0,8.52-11.551,32.399-11.551S81.625,49.92,81.625,49.92
	S72.998,68.248,50.84,68.248S19.232,49.92,19.232,49.92z"/>
<path stroke="#000000" stroke-width="3" d="M50.126,88.691c0.832,0,1.506-0.957,1.506-2.135v-9.792c0-1.179-0.674-2.134-1.506-2.134
	l0,0c-0.832,0-1.506,0.955-1.506,2.134v9.792C48.62,87.734,49.294,88.691,50.126,88.691L50.126,88.691z"/>
<path stroke="#000000" stroke-width="3" d="M97.85,63.535c0.436-0.708-0.023-1.783-1.027-2.401L88.483,56
	c-1.003-0.617-2.171-0.545-2.606,0.164l0,0c-0.437,0.709,0.023,1.783,1.027,2.4l8.339,5.135
	C96.246,64.316,97.413,64.244,97.85,63.535L97.85,63.535z"/>
<path stroke="#000000" stroke-width="3" d="M2.151,63.535c-0.436-0.708,0.024-1.783,1.027-2.401L11.518,56
	c1.003-0.617,2.171-0.545,2.607,0.164l0,0c0.436,0.709-0.024,1.783-1.028,2.4l-8.339,5.135C3.754,64.316,2.588,64.244,2.151,63.535
	L2.151,63.535z"/>
<path stroke="#000000" stroke-width="3" d="M21.342,81.49c-0.704-0.442-0.767-1.61-0.14-2.607l5.208-8.293
	c0.627-0.998,1.707-1.448,2.41-1.006l0,0c0.705,0.443,0.767,1.61,0.141,2.607l-5.208,8.293
	C23.125,81.482,22.047,81.933,21.342,81.49L21.342,81.49z"/>
<path stroke="#000000" stroke-width="3" d="M79.663,81.49c0.703-0.442,0.767-1.61,0.141-2.607l-5.209-8.293
	c-0.627-0.998-1.706-1.448-2.411-1.006l0,0c-0.704,0.443-0.766,1.61-0.14,2.607l5.208,8.293
	C77.879,81.482,78.957,81.933,79.663,81.49L79.663,81.49z"/>
</svg>
