<?xml version="1.0" encoding="utf-8"?>
<!-- Generator: Adobe Illustrator 14.0.0, SVG Export Plug-In . SVG Version: 6.00 Build 43363)  -->
<!DOCTYPE svg PUBLIC "-//W3C//DTD SVG 1.1//EN" "http://www.w3.org/Graphics/SVG/1.1/DTD/svg11.dtd">
<svg version="1.1" id="Layer_1" xmlns="http://www.w3.org/2000/svg" xmlns:xlink="http://www.w3.org/1999/xlink" x="0px" y="0px"
	 width="100px" height="100px" viewBox="0 0 100 100" enable-background="new 0 0 100 100" xml:space="preserve">
<g>
	<path d="M70.927,90.071c-0.663,1.995-2.193,3.613-3.419,3.613H25.897c-1.226,0-2.719-1.618-3.333-3.613L10.869,52.138
		c-0.615-1.995,0.504-3.612,2.5-3.612h67.739c1.995,0,3.075,1.617,2.413,3.612L70.927,90.071z"/>
</g>
<g>
	<g>
		<g>
			<g>
				<path d="M19.403,30.56c1.509-3.447,2.762-5.348,4.964-8.31c0.943-1.837,6.266-5.396,12.447-5.4
					c5.774,0.111,12.398,0.393,12.411,0c0.015-0.019,0.389-0.021,1.238-0.276c0.416-0.144,0.967-0.264,1.77-0.926
					c1.047-0.596,1.278-3.044,0.575-3.767c-2.058-2.927-4.734-4.028-7.738-5.674l-1.154-0.542l-0.626-0.266l-0.383-0.145
					C42.82,5.23,42.84,5.213,42.471,5.136l-0.41-0.044c-0.019,0.003-0.026,0.002-0.146,0.016c-0.093,0.028-0.104-0.027-0.596,0.167
					c-0.102,0.065-1.222,0.457-1.127,2.087c0.373,1.336,0.933,1.304,1.058,1.456c2.077,0.506,1.916,0.319,2.961,0.537
					c1.518,0.243,2.977,0.543,4.285,0.877c2.611,0.67,4.632,1.458,5.466,1.973c3.134,1.778,4.234,2.573,3.132,6.603
					c1.387-1.084,3.029-2.45,2.796-4.841c-0.245-2.29-1.987-4.053-4.065-5.188c-1.149-0.706-3.493-1.614-6.363-2.354
					c-1.437-0.368-3.003-0.689-4.623-0.948c-0.521-0.048-2.281-0.442-1.802-0.156c-2.095,5.337-1.208,3.197-1.201,3.726l0.487,0.207
					l1.026,0.48c2.625,1.245,5.528,3.143,6.023,4.009c1.651-1.313-1.298-0.73-0.784-0.739c0.038,0.31-4.962,0.063-11.957-0.073
					c-6.943-0.138-14.107,4.418-15.318,6.897C18.438,23.75,18.422,26.954,19.403,30.56z"/>
			</g>
		</g>
	</g>
</g>
<g>
	<g>
		<g>
			<path fill-rule="evenodd" clip-rule="evenodd" fill="#010101" d="M23.162,30.776c-5.695-0.966-10.815,3.73-9.891,9.645
				c-0.166,1.129,1.406,3.377,0.565,3.386c1.506-0.088,3.018-0.234,4.534-0.421c3.031-0.372,6.078-0.904,9.125-1.45
				c12.191-2.181,24.402-4.57,35.744,2.227c-2.225,6.255-10.576-1.441-13.884,3.701c-0.124,1.771,4.594,0.111,4.419,2.458
				c-2.787,3.773-9.764,3.222-11.725-1.258c-9.229,2.179-18.876,8.756-27.712,6.773l-0.381-0.278l-0.163-0.138l-0.038-0.034
				l-0.009-0.009l-0.002-0.002l-0.001-0.001c8.298,4.874-11.306-6.642-9.287-5.458l-0.005-0.018l-0.02-0.071L4.361,49.55
				c-0.094-0.583-0.001-0.824,0.047-1.133c0.164-0.509,0.435-0.769,0.729-0.958c0.596-0.367,1.298-0.449,1.753-1.192
				c-5.994-6.516-1.462-18.978,4.896-20.449C17.761,23.618,21.939,26.953,23.162,30.776z"/>
			<path fill-rule="evenodd" clip-rule="evenodd" fill="#010101" d="M56.389,36.675c0.798-0.416-0.525-1.646-0.046-2.186
				c3.056,0.832,6.55,5.345,9.178,8.408c-0.31-1.692,1.757-3.158,3.844-0.688c0.236,0.904-1.05,1.222-0.598,2.209
				c1.708,1.735,3.208,0.092,4.584,0.345c0.795,0.845,1.231,1.556,1.331,2.136c-9.042,3.121-18.821-9.94-27.94-10.411
				C46.976,33.153,52.806,31.288,56.389,36.675z"/>
			<g>
				<g>
					<path fill="#010101" d="M48.305,43.86c6.397,1.985,13.02,3.143,19.772,3.763c3.377,0.311,6.786,0.487,10.216,0.565l1.287,0.025
						l0.322,0.005l0.161,0.002l0.04,0h0.021c-2.837,1.849,3.889-2.516,3.198-2.077l0.036-0.09l0.284-0.722
						c0.403-0.937,0.722-1.953,0.932-3.056c0.431-2.157,0.407-4.742-0.633-7.089c-5.535-9.15-14.343-8.449-21.027-9.38
						c-1.776-0.102-3.54-0.146-5.271-0.171c-0.861-0.015-1.731-0.023-2.506-0.053c-0.116-0.005-0.47-0.028-0.393-0.017
						c0.192-0.703-0.495,1.827-0.522,1.905c0.129-0.184,0.427,0.962,0.757,1.793c0.055-0.04,0.566-0.179,0.903-0.268
						c3.264-0.889,7.07-1.451,10.145-4.692c0.334-1.89-0.396-3.649-1.56-4.294c0.16,0.852-0.089,1.639-0.646,2.333
						c0.21,1.383-0.393,2.976-1.171,4.443c0.949-0.47,1.904-1.053,2.791-1.85c1.579-1.028,1.778-5.015,0.283-5.888
						c-1.321-1.004-1.569-0.564-1.226,1.433c0.017,0.672-0.242,1.287-0.678,1.862c-0.666,1.667-7.144,6.604-1.171,4.443
						c1.17-0.571,2.376-1.267,3.376-2.482c1.557-1.322,0.998-5.261-0.537-5.904c-1.414-0.81-1.645-0.391-1.022,1.61
						c0.531,2.415-2.516,4.246-5.397,5.194c-1.486,0.529-3.02,0.85-4.697,1.336c-0.33,0.261-0.228-0.244-1.034,0.734
						c0.839,1.805,0.79,0.634,1.116,1.026l1.276,0.047l2.482,0.024c6.521,0.171,13.478,0.277,19.454,3.808
						c3.006,1.733,4.857,5.527,4.109,8.977c-0.775,1.33-0.055,4.048-2.713,3.927l-4.877-0.344
						c-6.473-0.582-12.814-1.681-18.934-3.581C53.171,40.513,45.358,42.945,48.305,43.86L48.305,43.86z"/>
				</g>
			</g>
		</g>
	</g>
</g>
</svg>
