<?xml version="1.0" encoding="utf-8"?>
<!-- Generator: Adobe Illustrator 14.0.0, SVG Export Plug-In . SVG Version: 6.00 Build 43363)  -->
<!DOCTYPE svg PUBLIC "-//W3C//DTD SVG 1.1//EN" "http://www.w3.org/Graphics/SVG/1.1/DTD/svg11.dtd">
<svg version="1.1" id="Layer_1" xmlns="http://www.w3.org/2000/svg" xmlns:xlink="http://www.w3.org/1999/xlink" x="0px" y="0px"
	 width="100px" height="100px" viewBox="0 0 100 100" enable-background="new 0 0 100 100" xml:space="preserve">
<g>
	<g>
		<path fill="#FFFFFF" d="M72.334,4.31C57.263,4.14,22.012,21.339,22.012,21.339v15.327h50.322c8.888,0,16.094-7.243,16.094-16.178
			S81.222,4.31,72.334,4.31z"/>
		<path d="M72.334,38.167H20.512V20.402l0.842-0.411C22.792,19.29,56.747,2.809,72.109,2.809l0.241,0.001
			c9.685,0,17.577,7.931,17.577,17.678S82.035,38.167,72.334,38.167L72.334,38.167z M23.512,35.167h48.822
			c8.047,0,14.594-6.584,14.594-14.678S80.381,5.81,72.334,5.81l-0.225-0.001c-13.384,0-43.204,13.906-48.598,16.475V35.167
			L23.512,35.167z"/>
	</g>
	<g>
		<ellipse fill="#FFFFFF" cx="72.27" cy="20.042" rx="10.303" ry="10.388"/>
		<path d="M72.27,31.93c-6.508,0-11.803-5.333-11.803-11.888c0-6.555,5.295-11.887,11.803-11.887
			c6.509,0,11.804,5.333,11.804,11.887C84.073,26.597,78.778,31.93,72.27,31.93L72.27,31.93z M72.27,11.155
			c-4.854,0-8.803,3.987-8.803,8.887c0,4.901,3.949,8.888,8.803,8.888c4.854,0,8.804-3.987,8.804-8.888
			C81.073,15.142,77.124,11.155,72.27,11.155L72.27,11.155z"/>
	</g>
	<g>
		<g>
			<path d="M17.294,24.631c-0.67,0.54-2.767-0.507-3.632-0.5c-1.355,0.011-2.712,1.58-4.03,1.005
				C8.316,24.562,7.17,26.5,8.497,27.079c2.034,0.888,3.102-0.03,5.016-0.656c0.992-0.325,2.089,0.577,3.075,0.637
				c0.94,0.057,1.581-0.26,2.298-0.837C20.016,25.312,18.413,23.73,17.294,24.631L17.294,24.631z"/>
		</g>
	</g>
	<g>
		<g>
			<path d="M17.294,28.137c-0.67,0.54-2.768-0.507-3.632-0.5c-1.355,0.011-2.711,1.581-4.03,1.006
				c-1.316-0.575-2.463,1.363-1.136,1.942c2.034,0.888,3.102-0.03,5.016-0.657c0.991-0.325,2.089,0.578,3.075,0.638
				c0.94,0.057,1.581-0.26,2.298-0.837C20.016,28.818,18.413,27.236,17.294,28.137L17.294,28.137z"/>
		</g>
	</g>
	<g>
		<g>
			<path d="M17.294,31.75c-0.67,0.539-2.768-0.507-3.632-0.5c-1.355,0.011-2.711,1.581-4.03,1.005
				c-1.316-0.575-2.462,1.363-1.136,1.942c2.034,0.889,3.102-0.029,5.016-0.656c0.992-0.325,2.089,0.577,3.075,0.637
				c0.939,0.057,1.581-0.26,2.298-0.837C20.016,32.431,18.413,30.849,17.294,31.75L17.294,31.75z"/>
		</g>
	</g>
	<g>
		<path d="M75.295,56.793c-9.538,0-10.783-14.561-10.831-15.18l-0.122-1.564l1.567-0.052c0.059-0.002,1.521-0.048,8.533-0.048
			c6.226,0,9.065-3.062,9.183-3.192l2.578-2.853l0.043,3.835c0.011,1.172-0.037,11.595-4.903,16.506
			C79.668,55.937,77.633,56.793,75.295,56.793L75.295,56.793z M67.663,42.972c0.545,3.352,2.352,10.821,7.632,10.821
			c1.529,0,2.811-0.543,3.916-1.658c2.513-2.535,3.569-7.449,3.906-11.304c-1.88,1.058-4.746,2.119-8.675,2.119
			C71.01,42.949,68.909,42.96,67.663,42.972L67.663,42.972z"/>
	</g>
	<g>
		<path d="M77.526,97.165c-0.531,0-1.045-0.282-1.317-0.781c-3.443-6.31-2.505-9.602-0.448-16.815
			c0.499-1.75,1.065-3.734,1.667-6.091c2.685-10.511-2.418-12.026-2.47-12.041c-0.799-0.217-1.271-1.041-1.054-1.841
			c0.217-0.798,1.038-1.273,1.841-1.054c0.328,0.089,7.996,2.336,4.589,15.678c-0.611,2.396-1.184,4.402-1.688,6.172
			c-1.989,6.975-2.659,9.324,0.195,14.555c0.397,0.728,0.129,1.639-0.598,2.035C78.016,97.106,77.77,97.165,77.526,97.165
			L77.526,97.165z"/>
	</g>
</g>
</svg>
