<?xml version="1.0" encoding="utf-8"?>
<!-- Generator: Adobe Illustrator 14.0.0, SVG Export Plug-In . SVG Version: 6.00 Build 43363)  -->
<!DOCTYPE svg PUBLIC "-//W3C//DTD SVG 1.1//EN" "http://www.w3.org/Graphics/SVG/1.1/DTD/svg11.dtd">
<svg version="1.1" id="Layer_1" xmlns="http://www.w3.org/2000/svg" xmlns:xlink="http://www.w3.org/1999/xlink" x="0px" y="0px"
	 width="100px" height="100px" viewBox="0 0 100 100" enable-background="new 0 0 100 100" xml:space="preserve">
<g>
	<path d="M87.186,85.688H8.975l-0.742-0.799c-4.792-5.16-10.936-17.851-0.326-29.284l12.352-32.305l0.225-0.292
		c0.36-0.466,9.13-11.417,37.135-12.89c13.962-0.738,27.977,8.149,35.324,22.246c8.427,16.167,6.554,35.702-5.011,52.255
		L87.186,85.688L87.186,85.688z M11.225,80.688h73.338c9.979-14.952,11.431-31.656,3.947-46.013
		c-6.454-12.382-18.577-20.189-30.628-19.563C34.411,16.346,26,24.358,24.644,25.833L12.218,58.329l-0.353,0.366
		C2.713,68.2,9.009,77.872,11.225,80.688L11.225,80.688z"/>
</g>
<g>
	<path d="M26.407,62.643c-6.811,0.001-13.278-1.247-17.505-3.469l2.326-4.426c6.773,3.559,24.031,4.537,33.994-1.407
		c4.309-2.571,6.517-6.09,6.564-10.461c0.035-3.253-1.056-5.943-3.336-8.223c-7.727-7.726-25.788-7.624-25.958-7.62l-0.059-5
		c0.82-0.009,20.32-0.137,29.545,9.077c3.24,3.237,4.857,7.214,4.808,11.821c-0.067,6.143-3.18,11.226-9.002,14.701
		C41.978,61.1,33.98,62.643,26.407,62.643L26.407,62.643z"/>
</g>
<g>
	<path d="M62.95,48.668c-2.446,0-4.437-1.984-4.437-4.423s1.99-4.423,4.437-4.423c2.445,0,4.436,1.984,4.436,4.423
		S65.396,48.668,62.95,48.668L62.95,48.668z M62.95,43.668c-0.312,0-0.564,0.259-0.564,0.577s0.253,0.577,0.564,0.577
		c0.311,0,0.563-0.259,0.563-0.577S63.261,43.668,62.95,43.668L62.95,43.668z"/>
</g>
</svg>
