<?xml version="1.0" encoding="utf-8"?>
<!-- Generator: Adobe Illustrator 14.0.0, SVG Export Plug-In . SVG Version: 6.00 Build 43363)  -->
<!DOCTYPE svg PUBLIC "-//W3C//DTD SVG 1.1//EN" "http://www.w3.org/Graphics/SVG/1.1/DTD/svg11.dtd">
<svg version="1.1" id="Layer_1" xmlns="http://www.w3.org/2000/svg" xmlns:xlink="http://www.w3.org/1999/xlink" x="0px" y="0px"
	 width="100px" height="100px" viewBox="0 0 100 100" enable-background="new 0 0 100 100" xml:space="preserve">
<rect x="50.49" y="5.827" transform="matrix(0.8954 0.4453 -0.4453 0.8954 11.8861 -22.9355)" fill="#FFFFFF" stroke="#020202" stroke-width="2" width="8.522" height="15.998"/>
<path fill="#FFFFFF" stroke="#020202" stroke-width="2" d="M53.092,33.57c-0.882,1.698-2.973,2.359-4.67,1.478l-6.66-3.459
	c-1.698-0.882-2.359-2.973-1.478-4.67l3.203-6.168c0.882-1.698,2.973-2.359,4.671-1.478l6.66,3.459
	c1.698,0.882,2.359,2.973,1.478,4.67L53.092,33.57z"/>
<path fill="none" stroke="#020202" stroke-width="2" d="M39.893,29.546c0.123-0.124-3.008,0-3.008,0v20.866h17.866V30.377"/>
<path fill="none" stroke="#020202" stroke-width="2" d="M54.751,50.413c0,0,10.562,17.584,0,32.886l11.694,7.824
	c0,0,19.56-37.907-11.694-59.121"/>
<path fill="none" stroke="#020202" stroke-width="2" d="M44.374,76.169L74.155,96.34H22.685c0,0-1.842-12.4,11.65-15.476
	C47.828,77.789,44.374,76.169,44.374,76.169z"/>
<path fill="#FFFFFF" stroke="#020202" stroke-width="2" d="M21.234,77.293c0-1.913,1.394-3.464,3.114-3.464h25.983
	c1.719,0,3.114,1.551,3.114,3.464v0.896c0,1.913-1.395,3.464-3.114,3.464H24.348c-1.72,0-3.114-1.551-3.114-3.464V77.293z"/>
<polyline fill="none" stroke="#020202" stroke-width="2" points="48.289,50.413 48.377,61.562 44.188,65.214 39.145,61.562 
	39.145,50.413 "/>
<ellipse fill="#FFFFFF" stroke="#020202" stroke-width="2" cx="56.728" cy="45.217" rx="3.283" ry="3.304"/>
<ellipse fill="#FFFFFF" stroke="#020202" stroke-width="2" cx="63.62" cy="52.347" rx="3.724" ry="3.825"/>
</svg>
