<?xml version="1.0" encoding="utf-8"?>
<!-- Generator: Adobe Illustrator 14.0.0, SVG Export Plug-In . SVG Version: 6.00 Build 43363)  -->
<!DOCTYPE svg PUBLIC "-//W3C//DTD SVG 1.1//EN" "http://www.w3.org/Graphics/SVG/1.1/DTD/svg11.dtd">
<svg version="1.1" id="Layer_1" xmlns="http://www.w3.org/2000/svg" xmlns:xlink="http://www.w3.org/1999/xlink" x="0px" y="0px"
	 width="100px" height="100px" viewBox="0 0 100 100" enable-background="new 0 0 100 100" xml:space="preserve">
<path d="M97.591,75.521c0,6.627-5.373,12-12,12H15.12c-6.627,0-12-5.373-12-12V34.119c0-6.627,5.373-12,12-12h70.471
	c6.627,0,12,5.373,12,12V75.521z"/>
<rect x="6.623" y="26.291" fill="#FFFFFF" width="87.465" height="56.9"/>
<rect x="20.074" y="35.856" width="16.031" height="37.952"/>
<g>
	<ellipse cx="61.439" cy="46.21" rx="9.927" ry="10.264"/>
	<ellipse cx="71.366" cy="63.706" rx="9.927" ry="10.264"/>
	<ellipse cx="51.512" cy="63.706" rx="9.927" ry="10.264"/>
	<path d="M46.769,54.688c0,0,4.761-2.069,4.744-8.479l4.744,8.479"/>
	<path d="M76.109,54.688c0,0-4.76-2.069-4.744-8.479l-4.743,8.479"/>
	<polygon points="51.513,73.97 71.366,73.97 65.409,53.913 57.688,53.913 	"/>
</g>
<path d="M68.053,76.271c0,0.816-0.662,1.479-1.479,1.479H56.306c-0.816,0-1.479-0.662-1.479-1.479l0,0
	c0-0.816,0.662-1.479,1.479-1.479h10.269C67.391,74.792,68.053,75.455,68.053,76.271L68.053,76.271z"/>
</svg>
