<?xml version="1.0" encoding="utf-8"?>
<!-- Generator: Adobe Illustrator 14.0.0, SVG Export Plug-In . SVG Version: 6.00 Build 43363)  -->
<!DOCTYPE svg PUBLIC "-//W3C//DTD SVG 1.1//EN" "http://www.w3.org/Graphics/SVG/1.1/DTD/svg11.dtd">
<svg version="1.1" id="Layer_1" xmlns="http://www.w3.org/2000/svg" xmlns:xlink="http://www.w3.org/1999/xlink" x="0px" y="0px"
	 width="100px" height="100px" viewBox="0 0 100 100" enable-background="new 0 0 100 100" xml:space="preserve">
<g>
	<path fill="#020202" d="M86.445,89.213H13.738c-5.324,0-9.655-4.33-9.655-9.653V47.628c0-5.323,4.331-9.654,9.655-9.654h72.707
		c5.323,0,9.654,4.331,9.654,9.654V79.56C96.1,84.883,91.769,89.213,86.445,89.213L86.445,89.213z M13.738,40.974
		c-3.669,0-6.655,2.985-6.655,6.654V79.56c0,3.669,2.985,6.653,6.655,6.653h72.707c3.669,0,6.654-2.984,6.654-6.653V47.628
		c0-3.669-2.985-6.654-6.654-6.654H13.738L13.738,40.974z"/>
</g>
<g>
	<path fill="#020202" d="M37.168,79.934H25.66c-5.324,0-9.655-4.331-9.655-9.655v-12.56c0-5.324,4.331-9.655,9.655-9.655h11.509
		c5.324,0,9.655,4.331,9.655,9.655v12.56C46.823,75.603,42.492,79.934,37.168,79.934L37.168,79.934z M25.66,51.063
		c-3.669,0-6.655,2.985-6.655,6.655v12.56c0,3.67,2.985,6.655,6.655,6.655h11.509c3.669,0,6.655-2.985,6.655-6.655v-12.56
		c0-3.67-2.985-6.655-6.655-6.655H25.66L25.66,51.063z"/>
</g>
<g>
	<path fill="#020202" d="M74.126,79.934H62.618c-5.323,0-9.654-4.331-9.654-9.655v-12.56c0-5.324,4.331-9.655,9.654-9.655h11.508
		c5.324,0,9.655,4.331,9.655,9.655v12.56C83.781,75.603,79.45,79.934,74.126,79.934L74.126,79.934z M62.618,51.063
		c-3.669,0-6.654,2.985-6.654,6.655v12.56c0,3.67,2.985,6.655,6.654,6.655h11.508c3.67,0,6.655-2.985,6.655-6.655v-12.56
		c0-3.67-2.985-6.655-6.655-6.655H62.618L62.618,51.063z"/>
</g>
<g>
	<polygon fill="#020202" points="16.026,39.724 10.065,4.51 13.023,4.009 18.984,39.223 16.026,39.724 	"/>
</g>
<g>
	<path fill="#020202" d="M87.945,40.974H76.808v-8.466h11.138V40.974L87.945,40.974z M79.808,37.974h5.138v-2.466h-5.138V37.974
		L79.808,37.974z"/>
</g>
<g>
	<path fill="#020202" d="M73.052,40.974H62.104v-8.466h10.948V40.974L73.052,40.974z M65.104,37.974h4.948v-2.466h-4.948V37.974
		L65.104,37.974z"/>
</g>
</svg>
