<?xml version="1.0" encoding="utf-8"?>
<!-- Generator: Adobe Illustrator 14.0.0, SVG Export Plug-In . SVG Version: 6.00 Build 43363)  -->
<!DOCTYPE svg PUBLIC "-//W3C//DTD SVG 1.1//EN" "http://www.w3.org/Graphics/SVG/1.1/DTD/svg11.dtd">
<svg version="1.1" id="Layer_1" xmlns="http://www.w3.org/2000/svg" xmlns:xlink="http://www.w3.org/1999/xlink" x="0px" y="0px"
	 width="100px" height="100px" viewBox="0 0 100 100" enable-background="new 0 0 100 100" xml:space="preserve">
<g>
	<path fill="#020202" d="M55.009,82.086C54.801,61.27,43.042,58.33,42.923,58.303l-0.803-0.185l0.027-0.823
		c0.004-0.133,0.445-13.474,1.173-26.644c1.523-27.566,2.657-27.566,3.969-27.566c1.889,0,2.899,3.453,6.039,40.053
		c0.568,6.633,1.018,11.872,1.271,13.372c0.818,4.868,6.921,12.407,6.982,12.482l-1.551,1.264
		c-0.265-0.326-6.499-8.031-7.404-13.414c-0.266-1.58-0.719-6.855-1.291-13.533c-0.949-11.066-2.608-30.412-3.986-36.612
		c-1.338,7.326-2.611,33-3.177,49.904c2.918,1.058,12.644,6.037,12.838,25.466L55.009,82.086L55.009,82.086z"/>
</g>
<g>
	<path fill="#020202" d="M66.439,97.302c-3.579,0-6.885-2.441-8.937-6.566c-2.486-0.254-4.435-2.427-4.435-5.062
		c0-1.812,0.923-3.46,2.399-4.37c0.105-8.536,4.986-15.434,10.972-15.434c6.051,0,10.974,7.05,10.974,15.716
		S72.49,97.302,66.439,97.302L66.439,97.302z M58.783,88.741l0.271,0.6c1.69,3.732,4.451,5.961,7.385,5.961
		c4.948,0,8.974-6.153,8.974-13.716S71.388,67.87,66.439,67.87s-8.974,6.153-8.974,13.716l0.012,0.969l-0.604,0.266
		c-1.097,0.48-1.805,1.601-1.805,2.854c0,1.702,1.312,3.087,2.924,3.087L58.783,88.741L58.783,88.741z"/>
</g>
<g>
	<path fill="#020202" d="M43.914,82.736l-1.999-0.066c0.38-11.546,3.689-16.418,5.2-18.054c-1.075-1.348-2.587-2.352-3.581-2.921
		c-0.589,1.679-2.048,4.819-5.43,8.205l-1.415-1.414c4.46-4.464,5.236-8.383,5.243-8.422l0.232-1.239l1.154,0.508
		c0.163,0.071,4.022,1.794,5.962,4.88l0.503,0.8l-0.771,0.548C48.975,65.588,44.359,69.188,43.914,82.736L43.914,82.736z"/>
</g>
<g>
	<path fill="#020202" d="M32.383,97.629c-6.051,0-10.974-7.05-10.974-15.716s4.923-15.716,10.974-15.716
		c5.985,0,10.867,6.897,10.972,15.434c1.477,0.909,2.4,2.559,2.4,4.369c0,2.635-1.949,4.809-4.436,5.063
		C39.268,95.187,35.962,97.629,32.383,97.629L32.383,97.629z M32.383,68.197c-4.948,0-8.974,6.153-8.974,13.716
		s4.025,13.716,8.974,13.716c2.934,0,5.695-2.229,7.386-5.962l0.277-0.612l0.792,0.033c1.604,0,2.917-1.385,2.917-3.088
		c0-1.252-0.708-2.372-1.805-2.853l-0.608-0.267l0.015-0.968C41.357,74.351,37.331,68.197,32.383,68.197L32.383,68.197z"/>
</g>
<g>
	<path fill="#020202" d="M48.189,57.654c-1.633,0-2.962-1.476-2.962-3.289s1.329-3.289,2.962-3.289s2.962,1.476,2.962,3.289
		S49.823,57.654,48.189,57.654L48.189,57.654z M48.189,53.076c-0.521,0-0.962,0.59-0.962,1.289s0.44,1.289,0.962,1.289
		s0.962-0.59,0.962-1.289S48.711,53.076,48.189,53.076L48.189,53.076z"/>
</g>
<g>
	<path fill="#020202" d="M32.243,93.879c-4.316,0-7.697-5.185-7.697-11.803s3.381-11.802,7.697-11.802
		c4.316,0,7.697,5.184,7.697,11.802S36.559,93.879,32.243,93.879L32.243,93.879z M32.243,72.274c-3.088,0-5.697,4.488-5.697,9.802
		s2.609,9.803,5.697,9.803c3.088,0,5.697-4.489,5.697-9.803S35.331,72.274,32.243,72.274L32.243,72.274z"/>
</g>
<g>
	<path fill="#020202" d="M66.527,93.545c-4.37,0-7.794-5.253-7.794-11.959s3.424-11.959,7.794-11.959s7.794,5.253,7.794,11.959
		S70.897,93.545,66.527,93.545L66.527,93.545z M66.527,71.627c-3.141,0-5.794,4.561-5.794,9.959s2.653,9.959,5.794,9.959
		s5.794-4.561,5.794-9.959S69.668,71.627,66.527,71.627L66.527,71.627z"/>
</g>
</svg>
