<?xml version="1.0" encoding="utf-8"?>
<!-- Generator: Adobe Illustrator 14.0.0, SVG Export Plug-In . SVG Version: 6.00 Build 43363)  -->
<!DOCTYPE svg PUBLIC "-//W3C//DTD SVG 1.1//EN" "http://www.w3.org/Graphics/SVG/1.1/DTD/svg11.dtd">
<svg version="1.1" id="Layer_1" xmlns="http://www.w3.org/2000/svg" xmlns:xlink="http://www.w3.org/1999/xlink" x="0px" y="0px"
	 width="100px" height="100px" viewBox="0 0 100 100" enable-background="new 0 0 100 100" xml:space="preserve">
<g>
	<path d="M49.512,96.692c-25.636,0-46.492-20.847-46.492-46.47S23.876,3.754,49.512,3.754S96.004,24.6,96.004,50.223
		S75.147,96.692,49.512,96.692L49.512,96.692z M49.512,7.754c-23.43,0-42.492,19.051-42.492,42.469
		c0,23.418,19.062,42.47,42.492,42.47c23.431,0,42.492-19.052,42.492-42.47C92.004,26.805,72.942,7.754,49.512,7.754L49.512,7.754z"
		/>
</g>
<g>
	<polygon points="81.807,82.188 62.577,70.379 34.596,70.379 17.746,82.125 15.458,78.844 33.339,66.379 63.708,66.379 83.9,78.78 
		81.807,82.188 	"/>
</g>
<g>
	<path d="M50.606,58.929l-0.469-0.101c-0.251-0.053-2.479-0.577-3.441-2.538c-0.432-0.88-0.739-2.359,0.25-4.407l0.28-0.581
		l27.562-8.789c0,0,0.41-0.044,0.897-0.044c1.541,0,2.464,0.493,2.743,1.465c0.443,1.542-1.234,2.592-2.041,3.097
		c-3.554,2.229-24.452,11.32-25.341,11.707L50.606,58.929L50.606,58.929z M49.417,53.75c-0.137,0.421-0.198,0.872-0.028,1.219
		c0.188,0.385,0.638,0.646,0.979,0.792c4.903-2.136,12.558-5.523,18.075-8.101L49.417,53.75L49.417,53.75z"/>
</g>
<g>
	<path d="M36.222,88.012c-2.183,0-3.959-1.776-3.959-3.96v-6.34c0-2.184,1.776-3.96,3.959-3.96c2.184,0,3.961,1.776,3.961,3.96v6.34
		C40.183,86.235,38.406,88.012,36.222,88.012L36.222,88.012z M36.222,76.752c-0.529,0-0.959,0.431-0.959,0.96v6.34
		c0,0.529,0.431,0.96,0.959,0.96c0.53,0,0.961-0.431,0.961-0.96v-6.34C37.183,77.183,36.752,76.752,36.222,76.752L36.222,76.752z"/>
</g>
<g>
	<path d="M44.834,88.012c-2.184,0-3.961-1.776-3.961-3.96v-6.34c0-2.184,1.777-3.96,3.961-3.96c2.183,0,3.959,1.776,3.959,3.96v6.34
		C48.794,86.235,47.018,88.012,44.834,88.012L44.834,88.012z M44.834,76.752c-0.53,0-0.961,0.431-0.961,0.96v6.34
		c0,0.529,0.431,0.96,0.961,0.96c0.529,0,0.959-0.431,0.959-0.96v-6.34C45.794,77.183,45.363,76.752,44.834,76.752L44.834,76.752z"
		/>
</g>
<g>
	<path d="M53.375,88.012c-2.184,0-3.96-1.776-3.96-3.96v-6.34c0-2.184,1.777-3.96,3.96-3.96s3.961,1.776,3.961,3.96v6.34
		C57.336,86.235,55.559,88.012,53.375,88.012L53.375,88.012z M53.375,76.752c-0.529,0-0.961,0.431-0.961,0.96v6.34
		c0,0.529,0.432,0.96,0.961,0.96c0.53,0,0.961-0.431,0.961-0.96v-6.34C54.336,77.183,53.905,76.752,53.375,76.752L53.375,76.752z"/>
</g>
<g>
	<path d="M61.986,88.012c-2.184,0-3.961-1.776-3.961-3.96v-6.34c0-2.184,1.777-3.96,3.961-3.96s3.96,1.776,3.96,3.96v6.34
		C65.946,86.235,64.17,88.012,61.986,88.012L61.986,88.012z M61.986,76.752c-0.53,0-0.961,0.431-0.961,0.96v6.34
		c0,0.529,0.431,0.96,0.961,0.96c0.529,0,0.96-0.431,0.96-0.96v-6.34C62.946,77.183,62.516,76.752,61.986,76.752L61.986,76.752z"/>
</g>
<g>
	<rect x="47.055" y="10.318" width="3.46" height="9.516"/>
</g>
<g>
	<rect x="64.061" y="15.212" transform="matrix(0.8767 0.4811 -0.4811 0.8767 17.7209 -29.1888)" width="3.461" height="9.515"/>
</g>
<g>
	<rect x="77.069" y="26.674" transform="matrix(0.5319 0.8468 -0.8468 0.5319 63.5031 -52.0149)" width="3.461" height="9.516"/>
</g>
<g>
	<rect x="82.935" y="43.832" transform="matrix(0.0731 0.9973 -0.9973 0.0731 126.9382 -39.4001)" width="3.461" height="9.516"/>
</g>
<g>
	<rect x="78.961" y="61.185" transform="matrix(-0.4773 0.8787 -0.8787 -0.4773 177.1537 26.512)" width="3.462" height="9.516"/>
</g>
<g>
	<rect x="29.686" y="15.212" transform="matrix(-0.8767 0.4811 -0.4811 -0.8767 68.5667 22.3629)" width="3.461" height="9.515"/>
</g>
<g>
	<rect x="18.679" y="26.675" transform="matrix(-0.5319 0.8468 -0.8468 -0.5319 57.8822 30.869)" width="3.461" height="9.516"/>
</g>
<g>
	<rect x="12.813" y="43.833" transform="matrix(-0.0731 0.9973 -0.9973 -0.0731 64.067 37.6371)" width="3.461" height="9.516"/>
</g>
<g>
	<rect x="16.787" y="61.185" transform="matrix(0.4774 0.8787 -0.8787 0.4774 67.619 18.1897)" width="3.461" height="9.516"/>
</g>
</svg>
