<?xml version="1.0" encoding="utf-8"?>
<!-- Generator: Adobe Illustrator 14.0.0, SVG Export Plug-In . SVG Version: 6.00 Build 43363)  -->
<!DOCTYPE svg PUBLIC "-//W3C//DTD SVG 1.1//EN" "http://www.w3.org/Graphics/SVG/1.1/DTD/svg11.dtd">
<svg version="1.1" id="Layer_1" xmlns="http://www.w3.org/2000/svg" xmlns:xlink="http://www.w3.org/1999/xlink" x="0px" y="0px"
	 width="100px" height="100px" viewBox="0 0 100 100" enable-background="new 0 0 100 100" xml:space="preserve">
<g>
	<path fill="#FFFFFF" d="M67.142,25.904H32.228c-1.134,0-2.054,0.846-2.054,1.888c0,1.042,0.919,1.888,2.054,1.888h4.792v54.16
		h0.013c0.275,6.478,5.833,11.649,12.651,11.649c6.819,0,12.376-5.172,12.651-11.649h0.014V29.68h4.792
		c1.134,0,2.054-0.845,2.054-1.888C69.195,26.75,68.275,25.904,67.142,25.904z"/>
	<path fill="#020202" d="M49.685,96.989c-7.118,0-13.008-5.012-14.012-11.649h-0.14l-0.013-1.5V31.18h-3.292
		c-1.959,0-3.554-1.52-3.554-3.388s1.594-3.388,3.554-3.388h34.914c1.96,0,3.554,1.52,3.554,3.388s-1.594,3.388-3.554,3.388H63.85
		v54.16h-0.153C62.693,91.979,56.803,96.989,49.685,96.989L49.685,96.989z M38.52,83.547l0.012,0.229
		c0.243,5.727,5.142,10.213,11.153,10.213s10.909-4.486,11.152-10.213l0.013-0.29V28.18h6.292c0.326,0,0.554-0.204,0.554-0.388
		s-0.228-0.388-0.554-0.388H32.228c-0.326,0-0.554,0.204-0.554,0.388s0.228,0.388,0.554,0.388h6.292V83.547L38.52,83.547z"/>
</g>
<g>
	<ellipse fill="#FFFFFF" cx="39.758" cy="12.886" rx="3.765" ry="3.602"/>
	<path fill="#020202" d="M39.758,17.988c-2.903,0-5.265-2.289-5.265-5.102s2.362-5.103,5.265-5.103s5.265,2.289,5.265,5.103
		S42.662,17.988,39.758,17.988L39.758,17.988z M39.758,10.783c-1.249,0-2.265,0.943-2.265,2.103s1.016,2.102,2.265,2.102
		s2.265-0.943,2.265-2.102S41.007,10.783,39.758,10.783L39.758,10.783z"/>
</g>
<g>
	<ellipse fill="#FFFFFF" cx="53.919" cy="15.177" rx="6.332" ry="6.313"/>
	<path fill="#020202" d="M53.919,22.99c-4.318,0-7.832-3.505-7.832-7.813s3.514-7.813,7.832-7.813s7.832,3.505,7.832,7.813
		S58.237,22.99,53.919,22.99L53.919,22.99z M53.919,10.364c-2.664,0-4.832,2.159-4.832,4.813s2.168,4.813,4.832,4.813
		s4.832-2.159,4.832-4.813S56.583,10.364,53.919,10.364L53.919,10.364z"/>
</g>
<g>
	<ellipse fill="#FFFFFF" cx="45.406" cy="5.216" rx="1.883" ry="1.748"/>
	<path fill="#020202" d="M45.406,8.465c-1.865,0-3.383-1.458-3.383-3.249s1.518-3.248,3.383-3.248s3.382,1.457,3.382,3.248
		S47.271,8.465,45.406,8.465L45.406,8.465z M45.406,4.968c-0.234,0-0.383,0.147-0.383,0.248c0,0.115,0.167,0.249,0.383,0.249
		c0.237,0,0.382-0.145,0.382-0.249C45.789,5.115,45.64,4.968,45.406,4.968L45.406,4.968z"/>
</g>
<g>
	<path fill="#FFFFFF" d="M37.02,55.948c0,0,2.738,2.738,6.503-2.396c0,0,1.711,5.179,6.161,1.562c0,0,3.423,4.256,6.332-1.562
		c0,0,1.541,6.16,6.333,0"/>
	<path fill="#020202" d="M38.97,58.178c-1.787,0-2.885-1.043-3.011-1.169l2.093-2.148c0.018,0.016,0.429,0.372,1.094,0.309
		c0.931-0.099,2.056-0.987,3.167-2.503l1.721-2.347l0.913,2.763c0.131,0.381,0.694,1.543,1.499,1.772
		c0.721,0.207,1.645-0.377,2.292-0.903L49.909,53l0.945,1.175c0.218,0.263,1.03,1.011,1.743,0.936
		c0.659-0.076,1.397-0.867,2.078-2.229l1.813-3.626l0.983,3.933c0.154,0.592,0.637,1.514,1.036,1.596
		c0.309,0.056,1.227-0.313,2.658-2.152l2.367,1.842c-1.995,2.566-3.85,3.632-5.646,3.245c-0.866-0.183-1.526-0.674-2.021-1.246
		c-0.878,0.961-1.866,1.504-2.957,1.621c-1.407,0.152-2.577-0.457-3.357-1.051c-1.373,0.824-2.697,1.055-3.955,0.689
		c-1.014-0.297-1.771-0.933-2.317-1.597c-1.273,1.244-2.598,1.925-3.954,2.028C39.205,58.174,39.086,58.178,38.97,58.178
		L38.97,58.178z"/>
</g>
</svg>
