<?xml version="1.0" encoding="utf-8"?>
<!-- Generator: Adobe Illustrator 14.0.0, SVG Export Plug-In . SVG Version: 6.00 Build 43363)  -->
<!DOCTYPE svg PUBLIC "-//W3C//DTD SVG 1.1//EN" "http://www.w3.org/Graphics/SVG/1.1/DTD/svg11.dtd">
<svg version="1.1" id="Layer_1" xmlns="http://www.w3.org/2000/svg" xmlns:xlink="http://www.w3.org/1999/xlink" x="0px" y="0px"
	 width="100px" height="100px" viewBox="0 0 100 100" enable-background="new 0 0 100 100" xml:space="preserve">
<g>
	<g>
		<path fill="#020202" d="M17.48,79.723V33.399l47.351-0.134V79.59L17.48,79.723L17.48,79.723z M19.48,35.393v42.324l43.351-0.121
			V35.271L19.48,35.393L19.48,35.393z"/>
		<path fill="#020202" d="M17.105,80.099V33.025l48.101-0.136v47.075L17.105,80.099L17.105,80.099z M17.855,33.773v45.574
			l46.601-0.131V33.641L17.855,33.773L17.855,33.773z M19.105,78.093V35.019l44.101-0.124V77.97L19.105,78.093L19.105,78.093z
			 M19.855,35.767v41.574l42.601-0.119V35.647L19.855,35.767L19.855,35.767z"/>
	</g>
</g>
<g>
	<g>
		<path fill="#020202" d="M64.831,87.765H17.48V77.72h47.351V87.765L64.831,87.765z M19.48,85.765h43.351V79.72H19.48V85.765
			L19.48,85.765z"/>
		<path fill="#020202" d="M65.206,88.14H17.105V77.345h48.101V88.14L65.206,88.14z M17.855,87.39h46.601v-9.295H17.855V87.39
			L17.855,87.39z M63.206,86.14H19.105v-6.795h44.101V86.14L63.206,86.14z M19.855,85.39h42.601v-5.295H19.855V85.39L19.855,85.39z"
			/>
	</g>
</g>
<g>
	<g>
		<path fill="#020202" d="M19.48,34.405h-2c0-0.22,0.272-21.983,23.703-21.983c23.431,0,23.703,21.596,23.703,21.814l-2,0.001
			c-0.002-0.809-0.294-19.815-21.703-19.815C19.728,14.422,19.48,33.589,19.48,34.405L19.48,34.405z"/>
		<path fill="#020202" d="M19.855,34.78h-2.75v-0.375c0-0.224,0.275-22.358,24.078-22.358s24.078,21.967,24.078,22.189v0.375
			l-2.749,0.001l-0.001-0.374c-0.002-0.794-0.289-19.441-21.328-19.441c-21.085,0-21.328,18.808-21.328,19.608V34.78L19.855,34.78z
			 M17.87,34.03h1.244c0.111-2.859,1.629-19.983,22.069-19.983c20.389,0,21.951,16.973,22.068,19.815l1.246-0.001
			C64.342,31,62.506,12.797,41.183,12.797C19.853,12.797,18.023,31.156,17.87,34.03L17.87,34.03z"/>
	</g>
</g>
<g>
	<g>
		<path fill="#020202" d="M64.555,74.595l-1.447-1.381l13.249-13.888c-2-2.601-4.018-7.502-0.103-11.43l0.706-0.708L87.256,57.45
			l-1.412,1.416l-8.826-8.797c-2.851,3.916,1.229,8.42,1.414,8.621l0.637,0.69L64.555,74.595L64.555,74.595z"/>
		<path fill="#020202" d="M64.567,75.125l-1.99-1.898l13.289-13.93c-2.39-3.266-3.566-7.965,0.122-11.666l0.971-0.974l10.827,10.792
			l-1.941,1.947l-8.769-8.739c-2.174,3.584,1.47,7.604,1.631,7.779l0.875,0.948L64.567,75.125L64.567,75.125z M63.638,73.201
			l0.904,0.863l14.013-14.688l-0.398-0.433c-0.185-0.199-4.472-4.934-1.441-9.096l0.257-0.354l8.871,8.841l0.883-0.885l-9.765-9.733
			l-0.441,0.442c-4.446,4.461-0.668,9.893,0.134,10.937l0.196,0.255L63.638,73.201L63.638,73.201z"/>
	</g>
</g>
<g>
	<g>
		<path fill="#020202" d="M64.541,83.446l-1.42-1.408l19.226-19.384l0.71,0.646c0.202,0.186,4.735,4.229,8.628,1.389l-8.826-8.799
			l1.412-1.416l10.296,10.264l-0.706,0.708c-3.905,3.918-8.804,1.935-11.413-0.053L64.541,83.446L64.541,83.446z"/>
		<path fill="#020202" d="M64.543,83.977l-1.952-1.937l19.742-19.905l0.977,0.889c0.025,0.024,2.536,2.299,5.315,2.299
			c0.886,0,1.715-0.231,2.471-0.69l-8.768-8.74l1.941-1.947l10.827,10.793l-0.971,0.974c-1.562,1.566-3.402,2.36-5.471,2.361h-0.001
			c-2.739,0-5.076-1.4-6.169-2.185L64.543,83.977L64.543,83.977z M63.651,82.036l0.888,0.88l17.874-18.021l0.262,0.2
			c0.879,0.669,3.222,2.227,5.98,2.227c1.862-0.001,3.524-0.721,4.939-2.141l0.441-0.442l-9.765-9.734l-0.883,0.885l8.871,8.844
			l-0.354,0.259c-0.982,0.717-2.086,1.08-3.28,1.08c-3.068,0-5.711-2.394-5.822-2.495l-0.442-0.403L63.651,82.036L63.651,82.036z"/>
	</g>
</g>
<g>
	<g>
		<path fill="#020202" d="M18.48,79.643c-0.16,0-16.034-0.198-16.034-17.247c0-17.05,15.753-17.247,15.913-17.247l0.001,2
			c-0.568,0.002-13.914,0.22-13.914,15.247c0,15.026,13.462,15.245,14.036,15.247L18.48,79.643L18.48,79.643z"/>
		<path fill="#020202" d="M18.854,80.018H18.48c-0.164,0-16.409-0.201-16.409-17.622c0-17.42,16.125-17.622,16.288-17.622h0.375
			l0.002,2.749l-0.374,0.001c-0.553,0.002-13.541,0.215-13.541,14.872s13.104,14.87,13.662,14.872l0.374,0.001L18.854,80.018
			L18.854,80.018z M17.984,45.54c-2.373,0.154-15.163,1.691-15.163,16.855c0,15.171,12.901,16.703,15.284,16.855l0.001-1.245
			c-2.312-0.12-14.035-1.432-14.035-15.61c0-14.172,11.613-15.489,13.914-15.61L17.984,45.54L17.984,45.54z"/>
	</g>
</g>
<g>
	<g>
		<path fill="#020202" d="M55.163,66.457c-0.432,0-0.859-0.031-1.284-0.094c-3.013-0.446-5.033-2.371-6.035-3.588
			c-2.736,2.527-5.498,3.668-8.227,3.402c-3.09-0.304-5.252-2.353-6.263-3.54c-3.299,2.324-6.485,3.277-9.471,2.831
			c-4.006-0.598-6.128-3.511-6.217-3.635l1.625-1.166c0.017,0.024,1.755,2.369,4.918,2.827c2.665,0.385,5.605-0.636,8.732-3.036
			l0.86-0.66l0.589,0.91c0.019,0.029,2.104,3.161,5.438,3.48c2.366,0.223,4.867-0.996,7.425-3.633l0.913-0.94l0.666,1.129
			c0.017,0.028,1.918,3.144,5.359,3.643c2.725,0.393,5.741-0.908,8.962-3.871l1.354,1.473C61.28,64.959,58.144,66.457,55.163,66.457
			L55.163,66.457z"/>
		<path fill="#020202" d="M55.163,66.832c-0.447,0-0.897-0.033-1.339-0.098c-2.924-0.434-4.949-2.215-6.015-3.422
			c-2.718,2.414-5.488,3.507-8.228,3.238c-3.004-0.295-5.16-2.163-6.288-3.414c-3.274,2.235-6.471,3.15-9.465,2.703
			c-4.167-0.622-6.375-3.659-6.466-3.788l-0.217-0.305l2.238-1.604l0.217,0.311c0.013,0.018,1.675,2.238,4.665,2.671
			c2.558,0.367,5.414-0.633,8.45-2.963l1.183-0.907l0.81,1.251c0.019,0.028,2.025,3.011,5.159,3.312
			c2.255,0.201,4.65-0.977,7.121-3.521l1.255-1.294l0.916,1.553c0.016,0.026,1.855,2.992,5.09,3.462
			c2.605,0.378,5.528-0.9,8.654-3.776l0.276-0.254l1.86,2.025l-0.275,0.254C61.469,65.296,58.239,66.832,55.163,66.832
			L55.163,66.832z M47.881,62.23l0.252,0.307c0.909,1.104,2.872,3.021,5.8,3.455c3.154,0.464,6.541-0.894,10.043-4.027l-0.847-0.92
			c-3.196,2.856-6.233,4.111-8.991,3.714c-3.599-0.521-5.607-3.787-5.627-3.82l-0.418-0.708l-0.571,0.587
			c-2.635,2.716-5.245,3.979-7.729,3.745c-3.526-0.338-5.696-3.616-5.717-3.649l-0.369-0.569l-0.537,0.413
			c-3.201,2.456-6.251,3.505-9.014,3.109c-2.643-0.383-4.333-2.015-4.93-2.689l-1.022,0.733c0.638,0.754,2.57,2.716,5.734,3.188
			c2.885,0.432,5.99-0.504,9.2-2.767l0.28-0.197l0.222,0.261c0.978,1.149,3.059,3.119,6.014,3.41
			c2.618,0.251,5.288-0.858,7.936-3.305L47.881,62.23L47.881,62.23z"/>
	</g>
</g>
<g>
	<g>
		<ellipse fill="#020202" cx="23.253" cy="82.802" rx="1.69" ry="1.622"/>
		<path fill="#020202" d="M23.253,84.799c-1.139,0-2.065-0.896-2.065-1.997s0.926-1.998,2.065-1.998s2.065,0.896,2.065,1.998
			S24.392,84.799,23.253,84.799L23.253,84.799z M23.253,81.554c-0.725,0-1.315,0.56-1.315,1.248c0,0.688,0.59,1.247,1.315,1.247
			s1.315-0.56,1.315-1.247C24.568,82.113,23.978,81.554,23.253,81.554L23.253,81.554z"/>
	</g>
</g>
<g>
	<g>
		<ellipse fill="#020202" cx="58.877" cy="82.802" rx="1.69" ry="1.622"/>
		<path fill="#020202" d="M58.877,84.799c-1.139,0-2.064-0.896-2.064-1.997s0.926-1.998,2.064-1.998s2.065,0.896,2.065,1.998
			S60.016,84.799,58.877,84.799L58.877,84.799z M58.877,81.554c-0.725,0-1.314,0.56-1.314,1.248c0,0.688,0.59,1.247,1.314,1.247
			c0.726,0,1.315-0.56,1.315-1.247C60.192,82.113,59.603,81.554,58.877,81.554L58.877,81.554z"/>
	</g>
</g>
<g>
	<g>
		<ellipse fill="#020202" cx="28.999" cy="82.802" rx="1.69" ry="1.622"/>
		<path fill="#020202" d="M28.999,84.799c-1.139,0-2.065-0.896-2.065-1.997s0.926-1.998,2.065-1.998s2.065,0.896,2.065,1.998
			S30.137,84.799,28.999,84.799L28.999,84.799z M28.999,81.554c-0.725,0-1.315,0.56-1.315,1.248c0,0.688,0.59,1.247,1.315,1.247
			s1.315-0.56,1.315-1.247C30.313,82.113,29.724,81.554,28.999,81.554L28.999,81.554z"/>
	</g>
</g>
<g>
	<g>
		<path fill="#020202" d="M87.395,53.583l2.566-4.294c0,0,0.531-1.415,1.808-0.652c1.276,0.763,0.266,2.101-0.444,2.412
			S87.395,53.583,87.395,53.583z"/>
		<path fill="#020202" d="M87.607,53.892l-0.535-0.501l2.566-4.294l0,0c-0.006,0,0.41-1.061,1.415-1.061
			c0.292,0,0.598,0.094,0.907,0.279c0.544,0.325,0.825,0.803,0.79,1.347c-0.047,0.744-0.699,1.478-1.276,1.73
			C90.919,51.636,88.495,53.278,87.607,53.892L87.607,53.892z M91.054,48.786c-0.489,0-0.739,0.628-0.742,0.635l-1.729,2.9
			c0.977-0.655,2.166-1.43,2.591-1.616c0.326-0.143,0.8-0.626,0.829-1.09c0.017-0.26-0.123-0.474-0.427-0.656
			C91.385,48.844,91.209,48.786,91.054,48.786L91.054,48.786z"/>
	</g>
</g>
<g>
	<g>
		<path fill="#020202" d="M89.947,54.631l4.301-2.557c0,0,1.14-0.992,1.9,0.286c0.76,1.278-0.767,1.975-1.539,1.91
			S89.947,54.631,89.947,54.631z"/>
		<path fill="#020202" d="M89.988,55.004l-0.232-0.695l4.301-2.557c-0.001-0.008,0.49-0.42,1.114-0.42
			c0.366,0,0.889,0.146,1.3,0.837c0.398,0.67,0.267,1.19,0.085,1.51c-0.386,0.677-1.347,1.011-1.978,0.966
			C93.837,54.585,90.023,55,89.988,55.004L89.988,55.004z M95.171,52.082c-0.346,0-0.674,0.272-0.677,0.275l-2.901,1.729
			c1.178-0.112,2.595-0.226,3.048-0.19c0.452,0.021,1.062-0.235,1.263-0.589c0.123-0.215,0.098-0.462-0.077-0.756
			C95.547,52.082,95.264,52.082,95.171,52.082L95.171,52.082z"/>
	</g>
</g>
<g>
	<g>
		<path fill="#020202" d="M87.197,49.571l0.074-5.002c0,0-0.247-1.491,1.239-1.469c1.486,0.021,1.281,1.687,0.821,2.311
			C88.873,46.035,87.197,49.571,87.197,49.571z"/>
		<path fill="#020202" d="M87.536,49.731l-0.714-0.166l0.074-5.002c-0.009-0.019-0.12-0.785,0.348-1.336
			c0.282-0.333,0.698-0.502,1.234-0.502c0.672,0.009,1.154,0.283,1.396,0.771c0.332,0.668,0.134,1.63-0.24,2.137
			C89.275,46.121,87.998,48.757,87.536,49.731L87.536,49.731z M88.504,43.475c-0.335,0-0.551,0.077-0.686,0.234
			c-0.209,0.244-0.198,0.66-0.177,0.8l-0.046,3.375c0.518-1.055,1.16-2.322,1.435-2.695c0.211-0.287,0.379-0.942,0.172-1.359
			C89.087,43.596,88.858,43.479,88.504,43.475C88.505,43.475,88.505,43.475,88.504,43.475L88.504,43.475z"/>
	</g>
</g>
</svg>
